<svg xmlns="http://www.w3.org/2000/svg" viewBox="-11 -28.51 30 29.51">
  <path d="M -0.801 -9.063 C -10.358 -5.431 0.407 0.031 8.975 -0.855 C 14.556 -0.989 15.816 -3.837 16.308 -6.325 C 16.515 -10.419 14.805 -15.444 3.688 -20.031 C 8.171 -20.134 11.186 -18.888 13.422 -22.98 C 14.131 -25.446 9.504 -28.019 4.606 -26.73 C -2.251 -25.029 -7.908 -9.075 -1.449 -11.554 C 4.283 -13.886 5.628 -10.763 11.558 -4.833 C 8.276 -7.402 8.998 -11.57 3.493 -20.607 C -1.753 -26.061 8.577 -30.558 4.457 -18.092 C 0.754 -6.332 -2.391 -1.691 -7 1 L -11 1 C -2.509 -4.612 -0.742 -8.446 2.455 -17.107 C 3.458 -18.836 5.534 -24.358 4.142 -25.029 C 1.719 -25.338 2.596 -21.935 4.452 -20.44 C 11 -11 10 -6 15.418 -0.728 C 9.107 -2.737 5.707 -12.74 -1.963 -10.289 C -8 -9 -6.392 -29.698 8.688 -28.51 C 18.792 -26.899 16.227 -18.962 7.753 -19.042 C 21.975 -13.551 21.724 1.501 8.775 0.805 C -0.081 0.348 -15.543 -6.46 -0.799 -9.106" fill="#000000"/>
</svg>